<svg width="133" height="159" viewBox="0 0 133 159" fill="none" xmlns="http://www.w3.org/2000/svg">
<path d="M108.606 44.3645C153.479 93.0139 121.45 146.608 101.037 146.779C95.2457 146.828 91.9674 142.112 91.3542 137.253C113.026 147.106 81.347 80.8721 79.1916 69.6759C74.9383 41.5939 86.3006 25.7318 108.606 44.3645V44.3645Z" fill="#D52C2C" stroke="black" stroke-width="1.57612"/>
<path d="M24.015 44.3645C-20.8581 93.0139 11.1715 146.608 31.5841 146.779C37.3754 146.828 40.6537 142.112 41.2668 137.253C19.5951 147.106 51.274 80.8721 53.4295 69.6759C57.6828 41.5939 46.3205 25.7318 24.015 44.3645V44.3645Z" fill="#D52C2C" stroke="black" stroke-width="1.57612"/>
<path d="M60.0218 95.6266L59.5366 97.0008C61.8452 97.6015 64.668 98.3041 66.442 98.3041C66.5945 98.3041 66.7496 98.2959 66.9062 98.2844C67.0629 98.2967 67.218 98.3041 67.3705 98.3041C69.191 98.3041 72.1113 97.5658 74.447 96.9564L73.9212 95.7417C71.446 95.9178 68.813 95.9839 66.0055 95.9307C63.9222 95.8913 61.9304 95.7881 60.0218 95.6266Z" fill="#CC00FF"/>
<path d="M56.1129 96.1888C56.0839 96.19 56.061 96.1943 56.0441 96.2011C41.3868 97.902 30.7873 117.181 25.4119 137.461C25.4119 137.461 25.675 137.602 26.0423 137.79C28.0434 138.406 32.7757 139.735 35.1924 139.325C39.5828 133.364 43.6743 122.073 43.9637 119.959L42.0234 153.999C42.0234 153.999 59.4995 156.483 68.3429 156.437C76.2935 156.396 91.9604 153.999 91.9604 153.999L90.4703 119.631C90.7598 121.745 94.4009 133.364 98.7913 139.325C101.208 139.735 105.94 138.406 107.941 137.79C108.309 137.602 108.572 137.461 108.572 137.461C103.196 117.181 92.597 97.902 77.9398 96.2011C77.9227 96.1957 77.8996 96.1902 77.8708 96.1888C76.9753 96.1431 70.5235 98.3042 67.4561 98.3042C67.3036 98.3042 67.1486 98.2974 66.9919 98.2844C66.8352 98.2967 66.6802 98.3042 66.5277 98.3042C63.4604 98.3042 57.0085 96.1432 56.113 96.1888H56.1129Z" fill="black" stroke="black" stroke-width="1.57612"/>
<path d="M108.069 137.678C107.975 137.727 107.98 137.726 107.856 137.79C105.957 138.374 101.604 139.597 99.0985 139.371C99.4684 140.062 99.9977 140.651 100.642 141.088C101.285 141.525 102.024 141.798 102.796 141.882C104.039 142.013 105.285 141.647 106.269 140.862C107.254 140.077 107.899 138.935 108.069 137.678V137.678Z" fill="#FFF1CD" stroke="black" stroke-width="0.630448" stroke-linecap="round" stroke-linejoin="round"/>
<path d="M61.1783 156.469C61.1523 157.042 60.487 157.563 59.3286 157.917C58.1702 158.27 56.6137 158.428 55.0014 158.355C54.2031 158.319 53.4151 158.227 52.6825 158.085C51.9499 157.943 51.287 157.754 50.7316 157.527C50.1762 157.301 49.7392 157.042 49.4456 156.766C49.1519 156.49 49.0075 156.202 49.0203 155.918C49.0463 155.345 49.7116 154.824 50.8699 154.471C52.0283 154.117 53.5849 153.959 55.1972 154.032C55.9955 154.068 56.7834 154.16 57.516 154.302C58.2486 154.444 58.9116 154.634 59.467 154.86C60.0224 155.086 60.4593 155.345 60.753 155.621C61.0466 155.897 61.1911 156.185 61.1783 156.469V156.469Z" fill="#FFF1CD" stroke="black" stroke-width="0.630448" stroke-linecap="round" stroke-linejoin="round"/>
<path d="M73.5416 156.469C73.5675 157.042 74.2329 157.563 75.3913 157.917C76.5497 158.27 78.1061 158.428 79.7184 158.355C80.5167 158.319 81.3047 158.227 82.0373 158.085C82.77 157.943 83.4328 157.754 83.9882 157.527C84.5436 157.301 84.9807 157.042 85.2743 156.766C85.5679 156.49 85.7125 156.202 85.6996 155.918C85.6736 155.345 85.0083 154.824 83.8499 154.471C82.6915 154.117 81.1349 153.959 79.5227 154.032C78.7244 154.068 77.9365 154.16 77.2038 154.302C76.4712 154.444 75.8082 154.634 75.2528 154.86C74.6974 155.086 74.2604 155.345 73.9668 155.621C73.6732 155.897 73.5287 156.185 73.5416 156.469V156.469Z" fill="#FFF1CD" stroke="black" stroke-width="0.630448" stroke-linecap="round" stroke-linejoin="round"/>
<path d="M25.861 137.678C25.9552 137.727 25.9499 137.726 26.074 137.79C27.9725 138.374 32.3258 139.597 34.8312 139.371C34.4614 140.062 33.932 140.651 33.2882 141.088C32.6444 141.525 31.9053 141.798 31.1341 141.882C29.8908 142.013 28.6447 141.647 27.6602 140.862C26.6758 140.077 26.0304 138.935 25.861 137.678V137.678Z" fill="#FFF1CD" stroke="black" stroke-width="0.630448" stroke-linecap="round" stroke-linejoin="round"/>
<path d="M23.9388 61.9441C23.9388 65.6203 24.3307 70.1517 22.2628 70.1517C20.1949 70.1517 16.4503 65.6203 16.4503 61.9441C16.4503 58.2678 18.1267 55.2876 20.1946 55.2876C22.2625 55.2876 23.9388 58.2678 23.9388 61.9441Z" fill="#FFF6D5" stroke="black" stroke-width="1.57624" stroke-linecap="round" stroke-linejoin="round"/>
<path d="M110.444 61.9441C110.444 65.6203 110.052 70.1517 112.12 70.1517C114.188 70.1517 117.933 65.6203 117.933 61.9441C117.933 58.2678 116.256 55.2876 114.188 55.2876C112.121 55.2876 110.444 58.2678 110.444 61.9441Z" fill="#FFF6D5" stroke="black" stroke-width="1.57624" stroke-linecap="round" stroke-linejoin="round"/>
<path d="M112.825 50.8187C112.825 76.1314 103.564 96.9751 66.9919 96.6514C31.7741 96.3398 21.1592 76.1314 21.1592 50.8187C21.1592 25.506 41.6792 4.98602 66.9919 4.98602C92.3046 4.98602 112.825 25.506 112.825 50.8187Z" fill="#FFF1CD" stroke="black" stroke-width="1.57624" stroke-linecap="round" stroke-linejoin="round"/>
<path d="M35.2442 82.1662C38.0579 82.1662 40.3389 80.6336 40.3389 78.7431C40.3389 76.8526 38.0579 75.3201 35.2442 75.3201C32.4304 75.3201 30.1494 76.8526 30.1494 78.7431C30.1494 80.6336 32.4304 82.1662 35.2442 82.1662Z" fill="#FFAAAA"/>
<path d="M98.7393 82.1662C101.553 82.1662 103.834 80.6336 103.834 78.7431C103.834 76.8526 101.553 75.3201 98.7393 75.3201C95.9255 75.3201 93.6445 76.8526 93.6445 78.7431C93.6445 80.6336 95.9255 82.1662 98.7393 82.1662Z" fill="#FFAAAA"/>
<path d="M29.6785 55.6366C29.6363 55.6407 29.61 55.6462 29.6009 55.6551C29.5913 55.6647 30.9147 57.3492 31.0752 57.5098C32.4699 58.9045 33.0695 58.8431 33.1152 58.8447C32.113 60.3922 31.4466 63.0862 31.4437 65.0608C31.4436 69.9103 34.656 73.8415 38.6187 73.8413C42.5809 73.8409 45.7928 69.9098 45.7927 65.0608C45.7924 60.2122 40.5409 56.7668 39.5922 56.4506C36.4522 55.4041 32.7857 55.3546 29.6786 55.6366L29.6785 55.6366Z" fill="black" stroke="black" stroke-width="1.57612" stroke-linecap="round" stroke-linejoin="round"/>
<path d="M88.2685 55.6366C88.2262 55.6407 88.1999 55.6462 88.1907 55.6551C88.1811 55.6647 89.5045 57.3492 89.6651 57.5098C91.0598 58.9045 91.6594 58.8431 91.7051 58.8447C90.7029 60.3922 90.0365 63.0862 90.0336 65.0608C90.0335 69.9103 93.2458 73.8415 97.2085 73.8413C101.171 73.8409 104.383 69.9098 104.383 65.0608C104.382 60.2122 99.1308 56.7668 98.182 56.4506C95.042 55.4041 91.3757 55.3546 88.2685 55.6366L88.2685 55.6366Z" fill="black" stroke="black" stroke-width="1.57612" stroke-linecap="round" stroke-linejoin="round"/>
<path d="M114.131 49.1306C112.276 21.1256 102.465 4.69058 66.5095 4.50318C29.8891 4.49402 17.1166 26.6973 20.3289 48.8665L67.07 44.4397L114.131 49.1306Z" fill="#FF00FF" stroke="black" stroke-width="1.57612" stroke-linecap="round" stroke-linejoin="round"/>
<path d="M66.7565 4.59887C65.1334 4.60434 63.4832 4.77457 61.8111 5.12798C35.3115 10.7288 24.7693 42.3479 27.2883 48.2073L67.07 44.4397L105.103 48.2307C105.107 48.2238 105.115 48.213 105.12 48.204C109.38 41.3069 91.1031 4.51181 66.7565 4.59879L66.7565 4.59887Z" fill="#FF00FF" stroke="black" stroke-width="1.57612"/>
<path d="M66.2973 37.8754C54.1435 37.8754 29.9465 40.6979 29.9465 40.6979C27.8916 40.6979 26.2372 42.3434 26.2372 44.3873C26.2372 46.4518 26.462 47.5166 26.8471 48.0325L66.7619 45.3846L105.93 48.0914C106.467 47.8385 106.445 46.9699 106.357 44.3873C106.288 42.3446 104.697 40.857 102.648 40.6979C102.648 40.6979 78.4511 37.8754 66.2973 37.8754V37.8754Z" fill="#FF00FF" stroke="black" stroke-width="1.57612" stroke-linecap="round" stroke-linejoin="round"/>
<path opacity="0.088" d="M66.8574 39.2379C54.807 39.2379 30.3434 42.0678 30.3434 42.0678C28.306 42.0678 26.4734 43.1344 26.4734 44.7516C26.4734 46.3852 26.7697 47.3455 27.1516 47.7537L66.7268 45.0618L105.562 47.5364C106.094 47.3363 106.232 46.7668 106.146 44.7233C106.078 43.107 103.867 42.1647 101.835 42.0388C101.835 42.0388 78.9078 39.2379 66.8574 39.2379V39.2379Z" fill="black"/>
<path d="M71.2929 3.50254C71.2929 4.97064 69.3673 5.02153 66.9918 5.02153C64.6164 5.02153 62.6907 4.9705 62.6907 3.50254C62.6907 2.03444 65.3974 1.40942 66.9918 1.40942C68.5863 1.40942 71.2929 2.03444 71.2929 3.50254Z" fill="#FF00FF" stroke="black" stroke-width="1.57612" stroke-linecap="round" stroke-linejoin="round"/>
<path d="M66.9919 79.3884C65.123 80.7803 62.6539 81.0945 59.3003 81.2137C59.9196 85.7313 63.1265 89.1744 66.9919 89.1744C70.8572 89.1744 74.0642 85.7313 74.6834 81.2137C71.3298 81.0944 68.8607 80.7803 66.9919 79.3884Z" fill="#CC0057" stroke="black" stroke-width="1.57612" stroke-linecap="round" stroke-linejoin="round"/>
<path d="M35.0666 75.6521L32.1958 81.1066" stroke="black" stroke-width="0.568388"/>
<path d="M37.4548 76.1298L34.584 81.5843" stroke="black" stroke-width="0.568388"/>
<path d="M99.2372 75.6521L96.3665 81.1066" stroke="black" stroke-width="0.568388"/>
<path d="M101.714 76.2151L98.8431 81.6696" stroke="black" stroke-width="0.568388"/>
<path opacity="0.088" d="M66.8232 53.1669C55.5431 53.1669 32.6434 51.0606 32.6434 51.0606C30.7362 51.0606 29.0208 50.2667 29.0208 49.063C29.0208 47.8471 29.2982 47.1323 29.6556 46.8285L66.7009 45.751L103.053 46.9902C103.552 47.1391 103.681 47.563 103.6 49.084C103.536 50.287 101.466 50.9884 99.5651 51.0821C99.5651 51.0821 78.1032 53.1669 66.8232 53.1669Z" fill="black"/>
<path d="M45.7489 22.457L66.6706 21.9077L86.8866 22.457V32.2807L66.8958 31.7314L45.7489 32.2807V22.457Z" fill="white"/>
<path d="M47.1725 23.9832L66.1078 23.434L85.4631 23.9832V31.2631L66.2203 30.7139L47.1725 31.2631V23.9832Z" fill="#FF00FF"/>
<path d="M48.0049 25.6895H50.3305C50.7181 25.6895 51.0152 25.7854 51.2218 25.9774C51.4302 26.1694 51.5344 26.4071 51.5344 26.6904C51.5344 26.9281 51.4604 27.132 51.3123 27.302C51.2136 27.4154 51.0691 27.505 50.879 27.5708C51.1679 27.6403 51.3799 27.76 51.5152 27.93C51.6524 28.0983 51.7209 28.3103 51.7209 28.5663C51.7209 28.7747 51.6725 28.9621 51.5756 29.1285C51.4787 29.2949 51.3461 29.4265 51.1779 29.5234C51.0737 29.5838 50.9165 29.6276 50.7062 29.655C50.4265 29.6916 50.2409 29.7099 50.1495 29.7099H48.0049V25.6895ZM49.2582 27.2664H49.7985C49.9923 27.2664 50.1266 27.2335 50.2016 27.1676C50.2784 27.1 50.3168 27.0031 50.3168 26.8769C50.3168 26.7599 50.2784 26.6685 50.2016 26.6027C50.1266 26.5369 49.995 26.504 49.8067 26.504H49.2582V27.2664ZM49.2582 28.846H49.8917C50.1056 28.846 50.2564 28.8085 50.3442 28.7336C50.432 28.6568 50.4758 28.5544 50.4758 28.4264C50.4758 28.3076 50.432 28.2125 50.3442 28.1412C50.2583 28.0681 50.1065 28.0315 49.889 28.0315H49.2582V28.846Z" fill="white"/>
<path d="M52.3682 25.6099H53.6105V28.6403H55.5494V29.6303H52.3682V25.6099Z" fill="white"/>
<path d="M56.9837 29.5507H55.714L57.2251 25.5303H58.5799L60.091 29.5507H58.791L57.9221 26.9181L56.9837 29.5507Z" fill="white"/>
<path d="M61.3305 27.8284L60.2417 28.1574C60.3148 28.4628 60.43 28.7178 60.5872 28.9226C60.7445 29.1274 60.9401 29.2819 61.1741 29.3861C61.4063 29.4903 61.7025 29.5424 62.0627 29.5424C62.4997 29.5424 62.8571 29.4793 63.135 29.3532C63.4111 29.2252 63.6497 29.0012 63.8508 28.6813C64.0519 28.3613 64.1525 27.9518 64.1525 27.4526C64.1525 26.7871 63.976 26.2761 63.6232 25.9196C63.2685 25.5613 62.7675 25.3821 62.1203 25.3821C61.6138 25.3821 61.2162 25.4845 60.9273 25.6892C60.6366 25.894 60.4209 26.2085 60.2801 26.6326L61.3771 26.8767C61.4155 26.7542 61.4557 26.6646 61.4977 26.608C61.5672 26.5129 61.6522 26.4398 61.7528 26.3886C61.8534 26.3374 61.9658 26.3118 62.0901 26.3118C62.3717 26.3118 62.5874 26.4251 62.7373 26.6518C62.8507 26.82 62.9074 27.0842 62.9074 27.4444C62.9074 27.8905 62.8397 28.1968 62.7044 28.3631C62.5691 28.5277 62.379 28.61 62.134 28.61C61.8963 28.61 61.7171 28.5432 61.5965 28.4098C61.474 28.2763 61.3853 28.0825 61.3305 27.8284V27.8284Z" fill="white"/>
<path d="M64.7585 25.3711H66.0009V26.8904L67.3036 25.3711H68.9545L67.49 26.8877L69.0203 29.3916H67.49L66.6426 27.7378L66.0009 28.4097V29.3916H64.7585V25.3711Z" fill="white"/>
<path d="M69.4318 25.4507H71.4968C71.9466 25.4507 72.283 25.5576 72.5061 25.7716C72.7309 25.9855 72.8434 26.2899 72.8434 26.6848C72.8434 27.0907 72.7209 27.4079 72.4759 27.6364C72.2327 27.865 71.8607 27.9792 71.3597 27.9792H70.6796V29.4711H69.4318V25.4507ZM70.6796 27.1647H70.984C71.2235 27.1647 71.3917 27.1236 71.4886 27.0413C71.5855 26.9572 71.634 26.8503 71.634 26.7204C71.634 26.5943 71.5919 26.4873 71.5078 26.3996C71.4237 26.3118 71.2656 26.2679 71.0334 26.2679H70.6796V27.1647Z" fill="white"/>
<path d="M73.5454 25.5303H74.7905V29.5507H73.5454V25.5303Z" fill="white"/>
<path d="M79.5322 25.6099H78.3721L76.8583 27.834V25.6099H75.6873V29.6303H76.8583L78.3639 27.4226V29.6303H79.5322V25.6099Z" fill="white"/>
<path d="M80.3687 25.6895H81.611V27.2088L82.9137 25.6895H84.5646L83.1001 27.206L84.6304 29.7099H83.1001L82.2527 28.0562L81.611 28.7281V29.7099H80.3687V25.6895Z" fill="white"/>
<path d="M58.0739 115.25L55.3676 115.273L54.6814 114.659L54.6868 112.303L56.2017 112.306L56.2163 113.687L57.2517 113.661V108.027H56.6631V106.461H59.323V108.027H58.7345L58.6882 114.471L58.0739 115.25Z" fill="#FF00FF"/>
<path d="M62.8395 115.273H60.1655V113.698H60.7572V108.035H60.1655V106.46H62.8395V108.035H62.2478V113.698H62.8395V115.273Z" fill="#FF00FF"/>
<path d="M67.6681 115.273H64.5316L63.6722 114.314L63.6894 112.584L65.2503 112.598L65.2776 113.616L66.8692 113.614L66.8568 111.592L64.4207 111.608L63.7106 110.903L63.6862 107.297L64.3707 106.47L67.5228 106.459L68.2976 107.286L68.2972 109.09L66.9104 109.073L66.91 108.082L65.1667 108.085L65.1708 109.952L67.5268 109.98L68.3988 110.916L68.4188 114.321L67.6681 115.273Z" fill="#FF00FF"/>
<path d="M69.9641 106.46L69.1866 107.311L69.1597 110.866L69.1866 114.422L69.9641 115.273H71.5315H73.0989L73.8765 114.422L73.9037 110.866L73.8765 107.311L73.0989 106.46H71.5315H69.9641ZM70.7423 107.995H72.2787V113.563H70.7423V107.995Z" fill="#FF00FF"/>
<path d="M75.3973 106.46L74.6197 107.311L74.5928 110.866L74.6197 114.422L75.3973 115.273H76.9647H78.532L79.3096 114.422L79.3368 110.866L79.3096 107.311L78.532 106.46H76.9647H75.3973ZM76.1754 107.995H77.7118V113.563H76.1754V107.995Z" fill="#FF00FF"/>
<path d="M77.6943 146.127L70.2306 146.164L67.8414 143.359V138.853L71.8902 138.858L71.8893 141.019L76.0642 141.014L76.0683 132.936H70.4175L67.8412 130.096V118.3H80.1959V123.74L71.9609 123.803L71.9486 127.911L77.5764 127.89L80.1963 130.59V143.342L77.6943 146.127Z" fill="#FF00FF"/>
<path d="M63.3758 146.127L56.3553 146.164L53.7872 143.23V138.731H58.0462L58.0786 140.954H62.198V134.781H56.1846L53.7872 131.938V121.307L56.3563 118.302H63.4541L66.1936 121.344V132.537L62.198 134.781L62.2218 123.475L58.0573 123.481L58.071 129.692L63.8043 129.779L66.1942 132.536V143.25L63.3758 146.127Z" fill="#FF00FF"/>
</svg>
